<svg width="16" height="16" viewBox="0 0 16 16" fill="none" xmlns="http://www.w3.org/2000/svg">
<path fill-rule="evenodd" clip-rule="evenodd" d="M5.5 5.40439C5.5 4.32246 5.78645 3.5731 6.18116 3.11231C6.5602 2.66981 7.11724 2.39932 7.89084 2.40447C9.66164 2.41627 10.8119 3.74578 10.5194 5.20827C10.3855 5.87787 9.86218 6.29456 8.93045 7.03645L8.90951 7.05313C8.08733 7.70781 6.89719 8.67603 6.89719 10.4044C6.89719 10.9567 7.34491 11.4044 7.89719 11.4044C8.44948 11.4044 8.89719 10.9567 8.89719 10.4044C8.89719 9.73321 9.28689 9.30923 10.1553 8.6177C10.2151 8.57014 10.2782 8.52073 10.3439 8.46928C11.0986 7.87829 12.1971 7.0181 12.4806 5.6005C13.0743 2.63178 10.6359 0.422716 7.90416 0.404519C6.6056 0.395868 5.46389 0.875329 4.66222 1.81122C3.87622 2.72883 3.5 3.98631 3.5 5.40439C3.5 5.95667 3.94772 6.40439 4.5 6.40439C5.05228 6.40439 5.5 5.95667 5.5 5.40439ZM8 15.4044C8.55228 15.4044 9 14.9567 9 14.4044C9 13.8521 8.55228 13.4044 8 13.4044C7.44772 13.4044 7 13.8521 7 14.4044C7 14.9567 7.44772 15.4044 8 15.4044Z" fill="white"/>
</svg>
